<svg data-v-423bf9ae="" xmlns="http://www.w3.org/2000/svg" viewBox="0 0 524.5969316235719 163" class="iconAbove"><!----><!----><!----><g data-v-423bf9ae="" id="ed5434dd-1254-4469-921b-0d2412d9defe" fill="black" transform="matrix(4.243281654165035,0,0,4.243281654165035,-2.3762391903822504,89.93069092155976)"><path d="M9.20 8.90L9.20 9.51L8.22 9.51L8.22 13.52L8.22 13.52Q8.22 14.45 7.90 15.15L7.90 15.15L7.90 15.15Q7.59 15.84 7.02 16.30L7.02 16.30L7.02 16.30Q6.46 16.76 5.69 16.99L5.69 16.99L5.69 16.99Q4.92 17.22 4.01 17.22L4.01 17.22L4.01 17.22Q3.66 17.22 3.34 17.16L3.34 17.16L3.34 17.16Q3.01 17.10 2.77 17.00L2.77 17.00L2.77 17.00Q2.52 16.90 2.38 16.76L2.38 16.76L2.38 16.76Q2.23 16.62 2.23 16.45L2.23 16.45L2.23 16.45Q2.23 16.32 2.26 16.20L2.26 16.20L2.26 16.20Q2.30 16.07 2.37 15.97L2.37 15.97L2.37 15.97Q2.43 15.87 2.53 15.80L2.53 15.80L2.53 15.80Q2.63 15.74 2.75 15.74L2.75 15.74L2.75 15.74Q2.84 15.74 2.89 15.81L2.89 15.81L2.89 15.81Q2.95 15.89 3.01 16.00L3.01 16.00L3.01 16.00Q3.07 16.11 3.15 16.24L3.15 16.24L3.15 16.24Q3.23 16.37 3.36 16.48L3.36 16.48L3.36 16.48Q3.48 16.59 3.66 16.67L3.66 16.67L3.66 16.67Q3.83 16.74 4.10 16.74L4.10 16.74L4.10 16.74Q4.63 16.74 5.03 16.55L5.03 16.55L5.03 16.55Q5.43 16.36 5.70 16.01L5.70 16.01L5.70 16.01Q5.97 15.67 6.11 15.19L6.11 15.19L6.11 15.19Q6.25 14.70 6.25 14.12L6.25 14.12L6.25 13.71L6.25 13.71Q5.97 13.77 5.68 13.80L5.68 13.80L5.68 13.80Q5.39 13.83 5.02 13.83L5.02 13.83L5.02 13.83Q4.09 13.83 3.28 13.55L3.28 13.55L3.28 13.55Q2.47 13.26 1.86 12.67L1.86 12.67L1.86 12.67Q1.26 12.07 0.91 11.15L0.91 11.15L0.91 11.15Q0.56 10.23 0.56 8.95L0.56 8.95L0.56 8.95Q0.56 8.06 0.75 7.31L0.75 7.31L0.75 7.31Q0.94 6.56 1.29 5.95L1.29 5.95L1.29 5.95Q1.63 5.35 2.10 4.89L2.10 4.89L2.10 4.89Q2.56 4.43 3.11 4.12L3.11 4.12L3.11 4.12Q3.66 3.81 4.28 3.66L4.28 3.66L4.28 3.66Q4.89 3.50 5.52 3.50L5.52 3.50L5.52 3.50Q6.11 3.50 6.62 3.61L6.62 3.61L6.62 3.61Q7.14 3.73 7.52 3.94L7.52 3.94L7.52 3.94Q7.90 4.16 8.11 4.47L8.11 4.47L8.11 4.47Q8.33 4.79 8.33 5.20L8.33 5.20L8.33 5.20Q8.33 5.38 8.27 5.58L8.27 5.58L8.27 5.58Q8.20 5.78 8.08 5.95L8.08 5.95L8.08 5.95Q7.96 6.12 7.77 6.22L7.77 6.22L7.77 6.22Q7.58 6.33 7.33 6.33L7.33 6.33L7.33 6.33Q7.04 6.33 6.90 6.16L6.90 6.16L6.90 6.16Q6.76 6.00 6.69 5.75L6.69 5.75L6.69 5.75Q6.62 5.50 6.58 5.21L6.58 5.21L6.58 5.21Q6.55 4.92 6.47 4.67L6.47 4.67L6.47 4.67Q6.38 4.42 6.22 4.26L6.22 4.26L6.22 4.26Q6.05 4.09 5.73 4.09L5.73 4.09L5.73 4.09Q5.49 4.09 5.19 4.20L5.19 4.20L5.19 4.20Q4.89 4.32 4.58 4.57L4.58 4.57L4.58 4.57Q4.27 4.82 3.98 5.21L3.98 5.21L3.98 5.21Q3.68 5.59 3.45 6.13L3.45 6.13L3.45 6.13Q3.22 6.67 3.08 7.37L3.08 7.37L3.08 7.37Q2.94 8.07 2.94 8.95L2.94 8.95L2.94 8.95Q2.94 9.92 3.06 10.61L3.06 10.61L3.06 10.61Q3.19 11.29 3.39 11.75L3.39 11.75L3.39 11.75Q3.59 12.22 3.85 12.49L3.85 12.49L3.85 12.49Q4.12 12.76 4.40 12.89L4.40 12.89L4.40 12.89Q4.68 13.03 4.95 13.07L4.95 13.07L4.95 13.07Q5.23 13.10 5.46 13.10L5.46 13.10L5.46 13.10Q5.70 13.10 5.90 13.07L5.90 13.07L5.90 13.07Q6.10 13.03 6.25 12.96L6.25 12.96L6.25 9.51L5.05 9.51L5.05 8.90L9.20 8.90ZM14.79 8.99L12.09 10.58L12.09 10.58Q12.09 10.80 12.16 11.06L12.16 11.06L12.16 11.06Q12.22 11.31 12.35 11.57L12.35 11.57L12.35 11.57Q12.47 11.83 12.65 12.07L12.65 12.07L12.65 12.07Q12.83 12.30 13.07 12.49L13.07 12.49L13.07 12.49Q13.30 12.67 13.59 12.78L13.59 12.78L13.59 12.78Q13.88 12.89 14.22 12.89L14.22 12.89L14.22 12.89Q14.46 12.89 14.66 12.84L14.66 12.84L14.66 12.84Q14.87 12.78 15.05 12.69L15.05 12.69L15.05 12.69Q15.22 12.59 15.39 12.47L15.39 12.47L15.39 12.47Q15.55 12.34 15.72 12.20L15.72 12.20L15.89 12.36L15.89 12.36Q15.73 12.57 15.48 12.82L15.48 12.82L15.48 12.82Q15.24 13.08 14.89 13.30L14.89 13.30L14.89 13.30Q14.54 13.52 14.08 13.67L14.08 13.67L14.08 13.67Q13.61 13.82 13.02 13.82L13.02 13.82L13.02 13.82Q12.42 13.82 11.86 13.60L11.86 13.60L11.86 13.60Q11.29 13.38 10.86 12.95L10.86 12.95L10.86 12.95Q10.42 12.52 10.15 11.88L10.15 11.88L10.15 11.88Q9.89 11.24 9.89 10.38L9.89 10.38L9.89 10.38Q9.89 9.75 10.05 9.24L10.05 9.24L10.05 9.24Q10.21 8.72 10.48 8.30L10.48 8.30L10.48 8.30Q10.75 7.88 11.10 7.57L11.10 7.57L11.10 7.57Q11.46 7.25 11.86 7.04L11.86 7.04L11.86 7.04Q12.26 6.84 12.67 6.73L12.67 6.73L12.67 6.73Q13.08 6.62 13.47 6.62L13.47 6.62L13.47 6.62Q13.97 6.62 14.35 6.73L14.35 6.73L14.35 6.73Q14.72 6.84 14.97 7.03L14.97 7.03L14.97 7.03Q15.22 7.21 15.35 7.45L15.35 7.45L15.35 7.45Q15.47 7.70 15.47 7.96L15.47 7.96L15.47 7.96Q15.47 8.29 15.29 8.54L15.29 8.54L15.29 8.54Q15.10 8.80 14.79 8.99L14.79 8.99ZM12.02 10.02L13.47 9.19L13.47 9.19Q13.56 9.14 13.61 9.09L13.61 9.09L13.61 9.09Q13.67 9.04 13.71 8.97L13.71 8.97L13.71 8.97Q13.74 8.89 13.76 8.79L13.76 8.79L13.76 8.79Q13.77 8.68 13.77 8.52L13.77 8.52L13.77 8.52Q13.77 8.35 13.74 8.15L13.74 8.15L13.74 8.15Q13.70 7.94 13.61 7.75L13.61 7.75L13.61 7.75Q13.52 7.57 13.38 7.44L13.38 7.44L13.38 7.44Q13.25 7.32 13.06 7.32L13.06 7.32L13.06 7.32Q12.81 7.32 12.64 7.47L12.64 7.47L12.64 7.47Q12.46 7.62 12.35 7.85L12.35 7.85L12.35 7.85Q12.24 8.08 12.17 8.38L12.17 8.38L12.17 8.38Q12.11 8.67 12.07 8.98L12.07 8.98L12.07 8.98Q12.04 9.28 12.03 9.55L12.03 9.55L12.03 9.55Q12.02 9.83 12.02 10.02L12.02 10.02ZM16.37 10.22L16.37 10.22L16.37 10.22Q16.37 9.32 16.63 8.65L16.63 8.65L16.63 8.65Q16.89 7.98 17.33 7.53L17.33 7.53L17.33 7.53Q17.76 7.08 18.33 6.85L18.33 6.85L18.33 6.85Q18.91 6.62 19.54 6.62L19.54 6.62L19.54 6.62Q20.17 6.62 20.74 6.83L20.74 6.83L20.74 6.83Q21.31 7.04 21.75 7.47L21.75 7.47L21.75 7.47Q22.18 7.90 22.44 8.56L22.44 8.56L22.44 8.56Q22.70 9.22 22.70 10.12L22.70 10.12L22.70 10.12Q22.70 11.02 22.44 11.71L22.44 11.71L22.44 11.71Q22.18 12.40 21.75 12.87L21.75 12.87L21.75 12.87Q21.31 13.34 20.74 13.59L20.74 13.59L20.74 13.59Q20.17 13.83 19.54 13.83L19.54 13.83L19.54 13.83Q18.91 13.83 18.33 13.60L18.33 13.60L18.33 13.60Q17.76 13.37 17.33 12.92L17.33 12.92L17.33 12.92Q16.89 12.47 16.63 11.79L16.63 11.79L16.63 11.79Q16.37 11.12 16.37 10.22ZM20.58 10.15L20.58 10.15L20.58 10.15Q20.58 9.60 20.54 9.10L20.54 9.10L20.54 9.10Q20.50 8.59 20.39 8.19L20.39 8.19L20.39 8.19Q20.28 7.79 20.08 7.56L20.08 7.56L20.08 7.56Q19.87 7.32 19.54 7.32L19.54 7.32L19.54 7.32Q19.20 7.32 19.00 7.57L19.00 7.57L19.00 7.57Q18.79 7.82 18.68 8.23L18.68 8.23L18.68 8.23Q18.57 8.63 18.54 9.15L18.54 9.15L18.54 9.15Q18.50 9.67 18.50 10.22L18.50 10.22L18.50 10.22Q18.50 10.77 18.54 11.29L18.54 11.29L18.54 11.29Q18.57 11.81 18.68 12.22L18.68 12.22L18.68 12.22Q18.79 12.63 19.00 12.88L19.00 12.88L19.00 12.88Q19.20 13.13 19.54 13.13L19.54 13.13L19.54 13.13Q19.87 13.13 20.08 12.87L20.08 12.87L20.08 12.87Q20.28 12.61 20.39 12.19L20.39 12.19L20.39 12.19Q20.50 11.76 20.54 11.23L20.54 11.23L20.54 11.23Q20.58 10.70 20.58 10.15ZM26.17 7.17L26.17 7.17L26.17 7.17Q26.02 7.17 25.88 7.21L25.88 7.21L25.88 7.21Q25.74 7.25 25.63 7.35L25.63 7.35L25.63 7.35Q25.52 7.44 25.46 7.58L25.46 7.58L25.46 7.58Q25.40 7.72 25.40 7.91L25.40 7.91L25.40 7.91Q25.40 8.18 25.59 8.44L25.59 8.44L25.59 8.44Q25.79 8.70 26.08 8.99L26.08 8.99L26.08 8.99Q26.37 9.27 26.70 9.57L26.70 9.57L26.70 9.57Q27.04 9.88 27.33 10.22L27.33 10.22L27.33 10.22Q27.62 10.55 27.82 10.94L27.82 10.94L27.82 10.94Q28.01 11.32 28.01 11.76L28.01 11.76L28.01 11.76Q28.01 12.25 27.85 12.63L27.85 12.63L27.85 12.63Q27.68 13.02 27.37 13.28L27.37 13.28L27.37 13.28Q27.06 13.55 26.62 13.69L26.62 13.69L26.62 13.69Q26.17 13.83 25.63 13.83L25.63 13.83L25.63 13.83Q25.16 13.83 24.78 13.70L24.78 13.70L24.78 13.70Q24.40 13.56 24.10 13.37L24.10 13.37L24.10 13.37Q23.80 13.17 23.59 12.95L23.59 12.95L23.59 12.95Q23.38 12.74 23.26 12.56L23.26 12.56L23.50 12.39L23.50 12.39Q23.59 12.49 23.73 12.61L23.73 12.61L23.73 12.61Q23.86 12.73 24.03 12.83L24.03 12.83L24.03 12.83Q24.20 12.93 24.39 13.00L24.39 13.00L24.39 13.00Q24.58 13.06 24.78 13.06L24.78 13.06L24.78 13.06Q25.27 13.06 25.59 12.83L25.59 12.83L25.59 12.83Q25.90 12.59 25.90 12.13L25.90 12.13L25.90 12.13Q25.90 11.87 25.73 11.59L25.73 11.59L25.73 11.59Q25.56 11.31 25.30 11.02L25.30 11.02L25.30 11.02Q25.04 10.73 24.74 10.41L24.74 10.41L24.74 10.41Q24.44 10.10 24.18 9.76L24.18 9.76L24.18 9.76Q23.92 9.43 23.75 9.07L23.75 9.07L23.75 9.07Q23.58 8.72 23.58 8.33L23.58 8.33L23.58 8.33Q23.58 7.90 23.75 7.58L23.75 7.58L23.75 7.58Q23.93 7.26 24.22 7.05L24.22 7.05L24.22 7.05Q24.51 6.84 24.88 6.73L24.88 6.73L24.88 6.73Q25.25 6.62 25.65 6.62L25.65 6.62L25.65 6.62Q26.11 6.62 26.48 6.71L26.48 6.71L26.48 6.71Q26.86 6.79 27.13 6.96L27.13 6.96L27.13 6.96Q27.40 7.12 27.55 7.38L27.55 7.38L27.55 7.38Q27.69 7.63 27.69 7.96L27.69 7.96L27.69 7.96Q27.69 8.22 27.52 8.42L27.52 8.42L27.52 8.42Q27.35 8.61 27.04 8.61L27.04 8.61L27.04 8.61Q26.75 8.61 26.60 8.48L26.60 8.48L26.60 8.48Q26.44 8.35 26.44 8.13L26.44 8.13L26.44 8.13Q26.44 7.99 26.51 7.91L26.51 7.91L26.51 7.91Q26.58 7.83 26.67 7.78L26.67 7.78L26.67 7.78Q26.76 7.72 26.83 7.69L26.83 7.69L26.83 7.69Q26.91 7.65 26.91 7.59L26.91 7.59L26.91 7.59Q26.91 7.40 26.70 7.28L26.70 7.28L26.70 7.28Q26.50 7.17 26.17 7.17ZM29.37 16.50L29.37 7.83L29.37 7.83Q29.37 7.63 29.27 7.48L29.27 7.48L29.27 7.48Q29.18 7.33 28.96 7.33L28.96 7.33L28.96 7.33Q28.85 7.33 28.77 7.38L28.77 7.38L28.77 7.38Q28.68 7.42 28.59 7.49L28.59 7.49L28.44 7.32L28.44 7.32Q28.60 7.19 28.80 7.06L28.80 7.06L28.80 7.06Q28.99 6.94 29.22 6.84L29.22 6.84L29.22 6.84Q29.44 6.75 29.70 6.69L29.70 6.69L29.70 6.69Q29.96 6.62 30.25 6.62L30.25 6.62L30.25 6.62Q30.56 6.62 30.78 6.72L30.78 6.72L30.78 6.72Q30.99 6.82 31.14 6.95L31.14 6.95L31.14 6.95Q31.29 7.08 31.36 7.23L31.36 7.23L31.36 7.23Q31.44 7.38 31.45 7.48L31.45 7.48L31.45 7.48Q31.59 7.29 31.78 7.13L31.78 7.13L31.78 7.13Q31.96 6.97 32.19 6.86L32.19 6.86L32.19 6.86Q32.41 6.75 32.66 6.69L32.66 6.69L32.66 6.69Q32.91 6.62 33.17 6.62L33.17 6.62L33.17 6.62Q33.72 6.62 34.17 6.85L34.17 6.85L34.17 6.85Q34.61 7.08 34.93 7.52L34.93 7.52L34.93 7.52Q35.25 7.96 35.42 8.62L35.42 8.62L35.42 8.62Q35.59 9.28 35.59 10.14L35.59 10.14L35.59 10.14Q35.59 11.14 35.38 11.84L35.38 11.84L35.38 11.84Q35.17 12.54 34.83 12.98L34.83 12.98L34.83 12.98Q34.49 13.43 34.06 13.63L34.06 13.63L34.06 13.63Q33.63 13.83 33.17 13.83L33.17 13.83L33.17 13.83Q32.80 13.83 32.52 13.75L32.52 13.75L32.52 13.75Q32.23 13.68 32.03 13.57L32.03 13.57L32.03 13.57Q31.82 13.46 31.68 13.35L31.68 13.35L31.68 13.35Q31.55 13.23 31.47 13.16L31.47 13.16L31.47 16.50L31.47 16.50Q31.47 16.58 31.44 16.71L31.44 16.71L31.44 16.71Q31.41 16.83 31.31 16.94L31.31 16.94L31.31 16.94Q31.20 17.06 30.99 17.14L30.99 17.14L30.99 17.14Q30.78 17.22 30.42 17.22L30.42 17.22L30.42 17.22Q30.06 17.22 29.85 17.13L29.85 17.13L29.85 17.13Q29.64 17.05 29.53 16.93L29.53 16.93L29.53 16.93Q29.42 16.81 29.39 16.69L29.39 16.69L29.39 16.69Q29.37 16.57 29.37 16.50L29.37 16.50ZM31.47 8.37L31.47 12.18L31.47 12.18Q31.47 12.24 31.51 12.37L31.51 12.37L31.51 12.37Q31.56 12.51 31.66 12.65L31.66 12.65L31.66 12.65Q31.77 12.80 31.93 12.91L31.93 12.91L31.93 12.91Q32.09 13.02 32.32 13.02L32.32 13.02L32.32 13.02Q32.62 13.02 32.83 12.79L32.83 12.79L32.83 12.79Q33.04 12.56 33.18 12.17L33.18 12.17L33.18 12.17Q33.32 11.78 33.38 11.26L33.38 11.26L33.38 11.26Q33.44 10.73 33.44 10.14L33.44 10.14L33.44 10.14Q33.44 9.41 33.36 8.90L33.36 8.90L33.36 8.90Q33.28 8.39 33.13 8.08L33.13 8.08L33.13 8.08Q32.98 7.77 32.77 7.63L32.77 7.63L32.77 7.63Q32.57 7.49 32.31 7.49L32.31 7.49L32.31 7.49Q32.16 7.49 32.01 7.58L32.01 7.58L32.01 7.58Q31.86 7.66 31.74 7.79L31.74 7.79L31.74 7.79Q31.62 7.92 31.54 8.07L31.54 8.07L31.54 8.07Q31.47 8.23 31.47 8.37L31.47 8.37ZM39.96 11.85L39.96 10.18L39.96 10.18Q39.96 10.01 39.85 9.92L39.85 9.92L39.85 9.92Q39.74 9.83 39.57 9.83L39.57 9.83L39.57 9.83Q39.33 9.83 39.12 9.94L39.12 9.94L39.12 9.94Q38.90 10.05 38.74 10.26L38.74 10.26L38.74 10.26Q38.58 10.47 38.48 10.78L38.48 10.78L38.48 10.78Q38.38 11.09 38.38 11.50L38.38 11.50L38.38 11.50Q38.38 11.90 38.44 12.16L38.44 12.16L38.44 12.16Q38.50 12.42 38.60 12.57L38.60 12.57L38.60 12.57Q38.70 12.73 38.83 12.79L38.83 12.79L38.83 12.79Q38.96 12.85 39.10 12.85L39.10 12.85L39.10 12.85Q39.28 12.85 39.44 12.76L39.44 12.76L39.44 12.76Q39.59 12.67 39.71 12.52L39.71 12.52L39.71 12.52Q39.83 12.38 39.89 12.20L39.89 12.20L39.89 12.20Q39.96 12.02 39.96 11.85L39.96 11.85ZM38.88 7.18L38.88 7.18L38.88 7.18Q38.64 7.18 38.45 7.24L38.45 7.24L38.45 7.24Q38.25 7.29 38.10 7.38L38.10 7.38L38.10 7.38Q37.96 7.46 37.88 7.56L37.88 7.56L37.88 7.56Q37.80 7.66 37.80 7.75L37.80 7.75L37.80 7.75Q37.80 7.85 37.90 7.89L37.90 7.89L37.90 7.89Q38.01 7.94 38.14 7.99L38.14 7.99L38.14 7.99Q38.27 8.05 38.37 8.16L38.37 8.16L38.37 8.16Q38.48 8.26 38.48 8.48L38.48 8.48L38.48 8.48Q38.48 8.63 38.42 8.75L38.42 8.75L38.42 8.75Q38.36 8.87 38.26 8.96L38.26 8.96L38.26 8.96Q38.17 9.05 38.03 9.10L38.03 9.10L38.03 9.10Q37.90 9.15 37.75 9.15L37.75 9.15L37.75 9.15Q37.37 9.15 37.14 8.89L37.14 8.89L37.14 8.89Q36.90 8.63 36.90 8.20L36.90 8.20L36.90 8.20Q36.90 7.79 37.12 7.49L37.12 7.49L37.12 7.49Q37.34 7.19 37.69 7L37.69 7L37.69 7Q38.04 6.81 38.49 6.72L38.49 6.72L38.49 6.72Q38.93 6.62 39.38 6.62L39.38 6.62L39.38 6.62Q39.91 6.62 40.39 6.74L40.39 6.74L40.39 6.74Q40.88 6.86 41.25 7.11L41.25 7.11L41.25 7.11Q41.62 7.36 41.85 7.75L41.85 7.75L41.85 7.75Q42.07 8.14 42.07 8.70L42.07 8.70L42.07 12.56L42.07 12.56Q42.07 12.62 42.08 12.69L42.08 12.69L42.08 12.69Q42.08 12.77 42.11 12.83L42.11 12.83L42.11 12.83Q42.14 12.89 42.19 12.93L42.19 12.93L42.19 12.93Q42.25 12.97 42.35 12.97L42.35 12.97L42.35 12.97Q42.47 12.97 42.58 12.88L42.58 12.88L42.58 12.88Q42.68 12.79 42.77 12.69L42.77 12.69L42.94 12.84L42.94 12.84Q42.83 12.98 42.69 13.15L42.69 13.15L42.69 13.15Q42.55 13.32 42.34 13.47L42.34 13.47L42.34 13.47Q42.14 13.62 41.86 13.73L41.86 13.73L41.86 13.73Q41.59 13.83 41.24 13.83L41.24 13.83L41.24 13.83Q40.81 13.83 40.48 13.57L40.48 13.57L40.48 13.57Q40.14 13.32 40.04 12.78L40.04 12.78L40.04 12.78Q39.82 13.08 39.58 13.28L39.58 13.28L39.58 13.28Q39.35 13.47 39.10 13.60L39.10 13.60L39.10 13.60Q38.86 13.72 38.61 13.77L38.61 13.77L38.61 13.77Q38.36 13.83 38.10 13.83L38.10 13.83L38.10 13.83Q37.78 13.83 37.47 13.73L37.47 13.73L37.47 13.73Q37.16 13.62 36.92 13.40L36.92 13.40L36.92 13.40Q36.67 13.18 36.53 12.82L36.53 12.82L36.53 12.82Q36.38 12.47 36.38 11.96L36.38 11.96L36.38 11.96Q36.38 11.33 36.63 10.94L36.63 10.94L36.63 10.94Q36.87 10.54 37.27 10.27L37.27 10.27L37.27 10.27Q37.67 10.00 38.18 9.81L38.18 9.81L38.18 9.81Q38.69 9.62 39.22 9.41L39.22 9.41L39.22 9.41Q39.62 9.25 39.80 8.94L39.80 8.94L39.80 8.94Q39.98 8.63 39.98 8.30L39.98 8.30L39.98 8.30Q39.98 7.79 39.69 7.49L39.69 7.49L39.69 7.49Q39.39 7.18 38.88 7.18ZM47.13 7.21L46.07 7.21L46.07 12.26L46.07 12.26Q46.07 12.63 46.21 12.77L46.21 12.77L46.21 12.77Q46.35 12.91 46.59 12.91L46.59 12.91L46.59 12.91Q46.77 12.91 46.92 12.80L46.92 12.80L46.92 12.80Q47.06 12.70 47.16 12.57L47.16 12.57L47.16 12.57Q47.28 12.43 47.37 12.24L47.37 12.24L47.58 12.33L47.58 12.33Q47.48 12.55 47.34 12.81L47.34 12.81L47.34 12.81Q47.20 13.07 46.97 13.29L46.97 13.29L46.97 13.29Q46.74 13.51 46.39 13.67L46.39 13.67L46.39 13.67Q46.03 13.82 45.50 13.82L45.50 13.82L45.50 13.82Q45.20 13.82 44.92 13.73L44.92 13.73L44.92 13.73Q44.65 13.64 44.43 13.45L44.43 13.45L44.43 13.45Q44.21 13.25 44.08 12.97L44.08 12.97L44.08 12.97Q43.96 12.68 43.96 12.28L43.96 12.28L43.96 7.21L43.19 7.21L43.19 6.72L43.19 6.72Q43.38 6.72 43.72 6.62L43.72 6.62L43.72 6.62Q44.06 6.52 44.42 6.29L44.42 6.29L44.42 6.29Q44.78 6.06 45.09 5.67L45.09 5.67L45.09 5.67Q45.40 5.28 45.53 4.70L45.53 4.70L46.07 4.70L46.07 6.72L47.19 6.72L47.19 6.72Q47.74 6.72 47.74 6.54L47.74 6.54L47.74 6.54Q47.74 6.47 47.67 6.44L47.67 6.44L47.67 6.44Q47.60 6.42 47.51 6.38L47.51 6.38L47.51 6.38Q47.43 6.34 47.36 6.28L47.36 6.28L47.36 6.28Q47.29 6.21 47.29 6.05L47.29 6.05L47.29 6.05Q47.29 5.86 47.41 5.75L47.41 5.75L47.41 5.75Q47.53 5.64 47.72 5.64L47.72 5.64L47.72 5.64Q47.84 5.64 47.94 5.69L47.94 5.69L47.94 5.69Q48.03 5.74 48.09 5.83L48.09 5.83L48.09 5.83Q48.15 5.91 48.18 6.02L48.18 6.02L48.18 6.02Q48.21 6.13 48.21 6.24L48.21 6.24L48.21 6.24Q48.21 6.69 47.96 6.95L47.96 6.95L47.96 6.95Q47.70 7.21 47.13 7.21L47.13 7.21ZM50.89 7.76L50.89 13.10L50.89 13.10Q50.89 13.19 50.86 13.32L50.86 13.32L50.86 13.32Q50.83 13.45 50.72 13.56L50.72 13.56L50.72 13.56Q50.61 13.67 50.39 13.75L50.39 13.75L50.39 13.75Q50.18 13.83 49.82 13.83L49.82 13.83L49.82 13.83Q49.46 13.83 49.25 13.74L49.25 13.74L49.25 13.74Q49.05 13.66 48.95 13.54L48.95 13.54L48.95 13.54Q48.84 13.43 48.82 13.30L48.82 13.30L48.82 13.30Q48.79 13.18 48.79 13.10L48.79 13.10L48.79 7.83L48.79 7.83Q48.79 7.63 48.70 7.48L48.70 7.48L48.70 7.48Q48.61 7.33 48.39 7.33L48.39 7.33L48.39 7.33Q48.28 7.33 48.19 7.38L48.19 7.38L48.19 7.38Q48.11 7.42 48.02 7.49L48.02 7.49L47.87 7.32L47.87 7.32Q48.03 7.19 48.22 7.06L48.22 7.06L48.22 7.06Q48.42 6.94 48.64 6.84L48.64 6.84L48.64 6.84Q48.87 6.75 49.13 6.69L49.13 6.69L49.13 6.69Q49.39 6.62 49.68 6.62L49.68 6.62L49.68 6.62Q50.12 6.62 50.37 6.74L50.37 6.74L50.37 6.74Q50.61 6.86 50.73 7.04L50.73 7.04L50.73 7.04Q50.85 7.21 50.87 7.41L50.87 7.41L50.87 7.41Q50.89 7.61 50.89 7.76L50.89 7.76ZM48.58 5.07L48.58 5.07L48.58 5.07Q48.58 4.87 48.67 4.70L48.67 4.70L48.67 4.70Q48.75 4.53 48.91 4.40L48.91 4.40L48.91 4.40Q49.06 4.27 49.26 4.19L49.26 4.19L49.26 4.19Q49.46 4.12 49.70 4.12L49.70 4.12L49.70 4.12Q49.94 4.12 50.14 4.19L50.14 4.19L50.14 4.19Q50.34 4.27 50.49 4.40L50.49 4.40L50.49 4.40Q50.64 4.53 50.73 4.70L50.73 4.70L50.73 4.70Q50.81 4.87 50.81 5.07L50.81 5.07L50.81 5.07Q50.81 5.26 50.73 5.43L50.73 5.43L50.73 5.43Q50.64 5.61 50.49 5.73L50.49 5.73L50.49 5.73Q50.34 5.86 50.14 5.93L50.14 5.93L50.14 5.93Q49.94 6.01 49.70 6.01L49.70 6.01L49.70 6.01Q49.46 6.01 49.26 5.93L49.26 5.93L49.26 5.93Q49.06 5.86 48.91 5.73L48.91 5.73L48.91 5.73Q48.75 5.61 48.67 5.43L48.67 5.43L48.67 5.43Q48.58 5.26 48.58 5.07ZM55.69 11.85L55.69 10.18L55.69 10.18Q55.69 10.01 55.58 9.92L55.58 9.92L55.58 9.92Q55.47 9.83 55.30 9.83L55.30 9.83L55.30 9.83Q55.06 9.83 54.85 9.94L54.85 9.94L54.85 9.94Q54.63 10.05 54.47 10.26L54.47 10.26L54.47 10.26Q54.30 10.47 54.21 10.78L54.21 10.78L54.21 10.78Q54.11 11.09 54.11 11.50L54.11 11.50L54.11 11.50Q54.11 11.90 54.17 12.16L54.17 12.16L54.17 12.16Q54.23 12.42 54.33 12.57L54.33 12.57L54.33 12.57Q54.43 12.73 54.56 12.79L54.56 12.79L54.56 12.79Q54.69 12.85 54.83 12.85L54.83 12.85L54.83 12.85Q55.01 12.85 55.17 12.76L55.17 12.76L55.17 12.76Q55.32 12.67 55.44 12.52L55.44 12.52L55.44 12.52Q55.56 12.38 55.62 12.20L55.62 12.20L55.62 12.20Q55.69 12.02 55.69 11.85L55.69 11.85ZM54.61 7.18L54.61 7.18L54.61 7.18Q54.37 7.18 54.17 7.24L54.17 7.24L54.17 7.24Q53.98 7.29 53.83 7.38L53.83 7.38L53.83 7.38Q53.69 7.46 53.61 7.56L53.61 7.56L53.61 7.56Q53.53 7.66 53.53 7.75L53.53 7.75L53.53 7.75Q53.53 7.85 53.63 7.89L53.63 7.89L53.63 7.89Q53.74 7.94 53.87 7.99L53.87 7.99L53.87 7.99Q54.00 8.05 54.10 8.16L54.10 8.16L54.10 8.16Q54.21 8.26 54.21 8.48L54.21 8.48L54.21 8.48Q54.21 8.63 54.15 8.75L54.15 8.75L54.15 8.75Q54.09 8.87 53.99 8.96L53.99 8.96L53.99 8.96Q53.89 9.05 53.76 9.10L53.76 9.10L53.76 9.10Q53.63 9.15 53.48 9.15L53.48 9.15L53.48 9.15Q53.10 9.15 52.87 8.89L52.87 8.89L52.87 8.89Q52.63 8.63 52.63 8.20L52.63 8.20L52.63 8.20Q52.63 7.79 52.85 7.49L52.85 7.49L52.85 7.49Q53.07 7.19 53.42 7L53.42 7L53.42 7Q53.77 6.81 54.22 6.72L54.22 6.72L54.22 6.72Q54.66 6.62 55.10 6.62L55.10 6.62L55.10 6.62Q55.64 6.62 56.12 6.74L56.12 6.74L56.12 6.74Q56.61 6.86 56.98 7.11L56.98 7.11L56.98 7.11Q57.35 7.36 57.58 7.75L57.58 7.75L57.58 7.75Q57.80 8.14 57.80 8.70L57.80 8.70L57.80 12.56L57.80 12.56Q57.80 12.62 57.80 12.69L57.80 12.69L57.80 12.69Q57.81 12.77 57.84 12.83L57.84 12.83L57.84 12.83Q57.87 12.89 57.92 12.93L57.92 12.93L57.92 12.93Q57.98 12.97 58.08 12.97L58.08 12.97L58.08 12.97Q58.20 12.97 58.31 12.88L58.31 12.88L58.31 12.88Q58.41 12.79 58.50 12.69L58.50 12.69L58.67 12.84L58.67 12.84Q58.56 12.98 58.42 13.15L58.42 13.15L58.42 13.15Q58.28 13.32 58.07 13.47L58.07 13.47L58.07 13.47Q57.87 13.62 57.59 13.73L57.59 13.73L57.59 13.73Q57.32 13.83 56.97 13.83L56.97 13.83L56.97 13.83Q56.54 13.83 56.21 13.57L56.21 13.57L56.21 13.57Q55.87 13.32 55.77 12.78L55.77 12.78L55.77 12.78Q55.55 13.08 55.31 13.28L55.31 13.28L55.31 13.28Q55.08 13.47 54.83 13.60L54.83 13.60L54.83 13.60Q54.58 13.72 54.34 13.77L54.34 13.77L54.34 13.77Q54.09 13.83 53.83 13.83L53.83 13.83L53.83 13.83Q53.50 13.83 53.20 13.73L53.20 13.73L53.20 13.73Q52.89 13.62 52.65 13.40L52.65 13.40L52.65 13.40Q52.40 13.18 52.26 12.82L52.26 12.82L52.26 12.82Q52.11 12.47 52.11 11.96L52.11 11.96L52.11 11.96Q52.11 11.33 52.36 10.94L52.36 10.94L52.36 10.94Q52.60 10.54 53.00 10.27L53.00 10.27L53.00 10.27Q53.40 10.00 53.91 9.81L53.91 9.81L53.91 9.81Q54.42 9.62 54.95 9.41L54.95 9.41L54.95 9.41Q55.35 9.25 55.53 8.94L55.53 8.94L55.53 8.94Q55.71 8.63 55.71 8.30L55.71 8.30L55.71 8.30Q55.71 7.79 55.42 7.49L55.42 7.49L55.42 7.49Q55.12 7.18 54.61 7.18ZM61.70 4.21L61.70 13.12L61.70 13.12Q61.70 13.21 61.67 13.33L61.67 13.33L61.67 13.33Q61.64 13.45 61.53 13.56L61.53 13.56L61.53 13.56Q61.41 13.67 61.20 13.75L61.20 13.75L61.20 13.75Q60.98 13.83 60.62 13.83L60.62 13.83L60.62 13.83Q60.26 13.83 60.05 13.74L60.05 13.74L60.05 13.74Q59.85 13.66 59.75 13.54L59.75 13.54L59.75 13.54Q59.65 13.43 59.63 13.30L59.63 13.30L59.63 13.30Q59.60 13.18 59.60 13.10L59.60 13.10L59.60 4.29L59.60 4.29Q59.60 4.09 59.51 3.94L59.51 3.94L59.51 3.94Q59.42 3.79 59.20 3.79L59.20 3.79L59.20 3.79Q59.08 3.79 59.00 3.83L59.00 3.83L59.00 3.83Q58.91 3.87 58.82 3.94L58.82 3.94L58.68 3.78L58.68 3.78Q58.84 3.65 59.03 3.52L59.03 3.52L59.03 3.52Q59.22 3.40 59.45 3.30L59.45 3.30L59.45 3.30Q59.68 3.21 59.94 3.14L59.94 3.14L59.94 3.14Q60.20 3.08 60.48 3.08L60.48 3.08L60.48 3.08Q60.93 3.08 61.17 3.20L61.17 3.20L61.17 3.20Q61.42 3.32 61.54 3.50L61.54 3.50L61.54 3.50Q61.65 3.67 61.68 3.87L61.68 3.87L61.68 3.87Q61.70 4.06 61.70 4.21L61.70 4.21ZM65.54 4.21L65.54 13.12L65.54 13.12Q65.54 13.21 65.51 13.33L65.51 13.33L65.51 13.33Q65.47 13.45 65.36 13.56L65.36 13.56L65.36 13.56Q65.25 13.67 65.03 13.75L65.03 13.75L65.03 13.75Q64.82 13.83 64.46 13.83L64.46 13.83L64.46 13.83Q64.09 13.83 63.89 13.74L63.89 13.74L63.89 13.74Q63.68 13.66 63.58 13.54L63.58 13.54L63.58 13.54Q63.49 13.43 63.46 13.30L63.46 13.30L63.46 13.30Q63.44 13.18 63.44 13.10L63.44 13.10L63.44 4.29L63.44 4.29Q63.44 4.09 63.35 3.94L63.35 3.94L63.35 3.94Q63.25 3.79 63.03 3.79L63.03 3.79L63.03 3.79Q62.92 3.79 62.83 3.83L62.83 3.83L62.83 3.83Q62.75 3.87 62.65 3.94L62.65 3.94L62.51 3.78L62.51 3.78Q62.67 3.65 62.86 3.52L62.86 3.52L62.86 3.52Q63.05 3.40 63.28 3.30L63.28 3.30L63.28 3.30Q63.51 3.21 63.77 3.14L63.77 3.14L63.77 3.14Q64.03 3.08 64.32 3.08L64.32 3.08L64.32 3.08Q64.76 3.08 65.01 3.20L65.01 3.20L65.01 3.20Q65.26 3.32 65.37 3.50L65.37 3.50L65.37 3.50Q65.49 3.67 65.51 3.87L65.51 3.87L65.51 3.87Q65.54 4.06 65.54 4.21L65.54 4.21ZM72.71 7.70L72.71 7.70L72.71 7.70Q72.71 8.95 72.46 10.11L72.46 10.11L72.46 10.11Q72.22 11.28 71.79 12.30L71.79 12.30L71.79 12.30Q71.37 13.32 70.78 14.17L70.78 14.17L70.78 14.17Q70.19 15.01 69.50 15.61L69.50 15.61L69.50 15.61Q68.81 16.21 68.04 16.55L68.04 16.55L68.04 16.55Q67.27 16.88 66.49 16.88L66.49 16.88L66.49 16.88Q65.88 16.88 65.56 16.68L65.56 16.68L65.56 16.68Q65.23 16.48 65.23 16.14L65.23 16.14L65.23 16.14Q65.23 16.01 65.27 15.89L65.27 15.89L65.27 15.89Q65.31 15.76 65.38 15.67L65.38 15.67L65.38 15.67Q65.45 15.57 65.54 15.51L65.54 15.51L65.54 15.51Q65.64 15.46 65.75 15.46L65.75 15.46L65.75 15.46Q65.88 15.46 65.96 15.59L65.96 15.59L65.96 15.59Q66.05 15.72 66.14 15.87L66.14 15.87L66.14 15.87Q66.24 16.02 66.38 16.15L66.38 16.15L66.38 16.15Q66.51 16.28 66.75 16.28L66.75 16.28L66.75 16.28Q67.06 16.28 67.40 16.18L67.40 16.18L67.40 16.18Q67.73 16.07 68.07 15.87L68.07 15.87L68.07 15.87Q68.41 15.67 68.75 15.39L68.75 15.39L68.75 15.39Q69.08 15.11 69.41 14.76L69.41 14.76L69.41 14.76Q69.22 14.07 68.97 13.25L68.97 13.25L68.97 13.25Q68.72 12.43 68.44 11.61L68.44 11.61L68.44 11.61Q68.17 10.78 67.88 10.01L67.88 10.01L67.88 10.01Q67.59 9.24 67.31 8.65L67.31 8.65L67.31 8.65Q67.03 8.05 66.78 7.69L66.78 7.69L66.78 7.69Q66.52 7.33 66.32 7.33L66.32 7.33L66.32 7.33Q66.19 7.33 66.12 7.38L66.12 7.38L66.12 7.38Q66.05 7.42 65.95 7.49L65.95 7.49L65.82 7.32L65.82 7.32Q65.95 7.21 66.10 7.08L66.10 7.08L66.10 7.08Q66.25 6.96 66.46 6.86L66.46 6.86L66.46 6.86Q66.66 6.75 66.94 6.69L66.94 6.69L66.94 6.69Q67.21 6.62 67.59 6.62L67.59 6.62L67.59 6.62Q68.01 6.62 68.37 6.81L68.37 6.81L68.37 6.81Q68.73 7 69.02 7.51L69.02 7.51L69.02 7.51Q69.23 7.88 69.46 8.41L69.46 8.41L69.46 8.41Q69.69 8.93 69.92 9.58L69.92 9.58L69.92 9.58Q70.16 10.23 70.39 10.99L70.39 10.99L70.39 10.99Q70.63 11.74 70.87 12.57L70.87 12.57L70.87 12.57Q71.29 11.68 71.55 10.69L71.55 10.69L71.55 10.69Q71.81 9.69 71.81 8.64L71.81 8.64L71.81 8.64Q71.81 8.26 71.76 8.00L71.76 8.00L71.76 8.00Q71.72 7.73 71.65 7.54L71.65 7.54L71.65 7.54Q71.59 7.36 71.54 7.22L71.54 7.22L71.54 7.22Q71.50 7.09 71.50 6.99L71.50 6.99L71.50 6.99Q71.50 6.88 71.58 6.81L71.58 6.81L71.58 6.81Q71.66 6.74 71.78 6.70L71.78 6.70L71.78 6.70Q71.89 6.66 72.01 6.64L72.01 6.64L72.01 6.64Q72.13 6.62 72.21 6.62L72.21 6.62L72.21 6.62Q72.40 6.62 72.50 6.70L72.50 6.70L72.50 6.70Q72.60 6.77 72.65 6.91L72.65 6.91L72.65 6.91Q72.69 7.05 72.70 7.25L72.70 7.25L72.70 7.25Q72.71 7.45 72.71 7.70ZM81.99 4.72L81.99 12.82L81.99 12.82Q81.99 13.35 81.71 13.59L81.71 13.59L81.71 13.59Q81.44 13.83 80.87 13.83L80.87 13.83L80.87 13.83Q80.29 13.83 80.02 13.59L80.02 13.59L80.02 13.59Q79.75 13.35 79.75 12.82L79.75 12.82L79.75 4.65L79.75 4.65Q79.75 4.27 79.23 4.27L79.23 4.27L79.23 4.27Q78.85 4.27 78.47 4.39L78.47 4.39L78.47 4.39Q78.08 4.50 77.77 4.69L77.77 4.69L77.77 4.69Q77.46 4.89 77.26 5.16L77.26 5.16L77.26 5.16Q77.06 5.43 77.06 5.74L77.06 5.74L77.06 5.74Q77.06 5.96 77.12 6.09L77.12 6.09L77.12 6.09Q77.18 6.22 77.25 6.29L77.25 6.29L77.25 6.29Q77.33 6.35 77.41 6.37L77.41 6.37L77.41 6.37Q77.49 6.38 77.52 6.38L77.52 6.38L77.52 6.38Q77.69 6.38 77.80 6.33L77.80 6.33L77.80 6.33Q77.91 6.27 78.00 6.20L78.00 6.20L78.00 6.20Q78.09 6.14 78.17 6.08L78.17 6.08L78.17 6.08Q78.24 6.02 78.35 6.02L78.35 6.02L78.35 6.02Q78.43 6.02 78.52 6.06L78.52 6.06L78.52 6.06Q78.61 6.10 78.69 6.18L78.69 6.18L78.69 6.18Q78.77 6.26 78.83 6.40L78.83 6.40L78.83 6.40Q78.88 6.53 78.88 6.72L78.88 6.72L78.88 6.72Q78.88 6.99 78.77 7.19L78.77 7.19L78.77 7.19Q78.67 7.39 78.50 7.52L78.50 7.52L78.50 7.52Q78.33 7.66 78.12 7.72L78.12 7.72L78.12 7.72Q77.90 7.79 77.69 7.79L77.69 7.79L77.69 7.79Q77.36 7.79 77.10 7.67L77.10 7.67L77.10 7.67Q76.84 7.56 76.65 7.36L76.65 7.36L76.65 7.36Q76.47 7.16 76.37 6.90L76.37 6.90L76.37 6.90Q76.28 6.63 76.28 6.33L76.28 6.33L76.28 6.33Q76.28 5.76 76.49 5.33L76.49 5.33L76.49 5.33Q76.70 4.89 77.09 4.58L77.09 4.58L77.09 4.58Q77.47 4.27 78.01 4.06L78.01 4.06L78.01 4.06Q78.55 3.85 79.21 3.73L79.21 3.73L79.21 3.73Q79.86 3.60 80.61 3.55L80.61 3.55L80.61 3.55Q81.36 3.50 82.17 3.50L82.17 3.50L82.17 3.50Q84.12 3.50 85.13 4.25L85.13 4.25L85.13 4.25Q86.13 5.00 86.13 6.40L86.13 6.40L86.13 6.40Q86.13 7.08 85.95 7.61L85.95 7.61L85.95 7.61Q85.77 8.13 85.47 8.51L85.47 8.51L85.47 8.51Q85.16 8.89 84.77 9.13L84.77 9.13L84.77 9.13Q84.37 9.37 83.95 9.47L83.95 9.47L83.95 9.47Q83.52 9.57 83.09 9.55L83.09 9.55L83.09 9.55Q82.67 9.53 82.30 9.39L82.30 9.39L82.39 9.10L82.39 9.10Q82.91 9.26 83.24 9.11L83.24 9.11L83.24 9.11Q83.57 8.96 83.76 8.59L83.76 8.59L83.76 8.59Q83.95 8.21 84.02 7.64L84.02 7.64L84.02 7.64Q84.09 7.06 84.09 6.37L84.09 6.37L84.09 6.37Q84.09 5.85 83.98 5.42L83.98 5.42L83.98 5.42Q83.87 5.00 83.68 4.70L83.68 4.70L83.68 4.70Q83.49 4.40 83.24 4.23L83.24 4.23L83.24 4.23Q83.00 4.06 82.71 4.06L82.71 4.06L82.71 4.06Q82.50 4.06 82.36 4.13L82.36 4.13L82.36 4.13Q82.22 4.19 82.14 4.29L82.14 4.29L82.14 4.29Q82.06 4.39 82.03 4.50L82.03 4.50L82.03 4.50Q82.00 4.61 81.99 4.72L81.99 4.72ZM86.41 10.22L86.41 10.22L86.41 10.22Q86.41 9.32 86.67 8.65L86.67 8.65L86.67 8.65Q86.93 7.98 87.36 7.53L87.36 7.53L87.36 7.53Q87.79 7.08 88.37 6.85L88.37 6.85L88.37 6.85Q88.94 6.62 89.57 6.62L89.57 6.62L89.57 6.62Q90.20 6.62 90.77 6.83L90.77 6.83L90.77 6.83Q91.35 7.04 91.78 7.47L91.78 7.47L91.78 7.47Q92.22 7.90 92.48 8.56L92.48 8.56L92.48 8.56Q92.74 9.22 92.74 10.12L92.74 10.12L92.74 10.12Q92.74 11.02 92.48 11.71L92.48 11.71L92.48 11.71Q92.22 12.40 91.78 12.87L91.78 12.87L91.78 12.87Q91.35 13.34 90.77 13.59L90.77 13.59L90.77 13.59Q90.20 13.83 89.57 13.83L89.57 13.83L89.57 13.83Q88.94 13.83 88.37 13.60L88.37 13.60L88.37 13.60Q87.79 13.37 87.36 12.92L87.36 12.92L87.36 12.92Q86.93 12.47 86.67 11.79L86.67 11.79L86.67 11.79Q86.41 11.12 86.41 10.22ZM90.61 10.15L90.61 10.15L90.61 10.15Q90.61 9.60 90.57 9.10L90.57 9.10L90.57 9.10Q90.54 8.59 90.43 8.19L90.43 8.19L90.43 8.19Q90.32 7.79 90.11 7.56L90.11 7.56L90.11 7.56Q89.91 7.32 89.57 7.32L89.57 7.32L89.57 7.32Q89.24 7.32 89.03 7.57L89.03 7.57L89.03 7.57Q88.83 7.82 88.72 8.23L88.72 8.23L88.72 8.23Q88.61 8.63 88.57 9.15L88.57 9.15L88.57 9.15Q88.54 9.67 88.54 10.22L88.54 10.22L88.54 10.22Q88.54 10.77 88.57 11.29L88.57 11.29L88.57 11.29Q88.61 11.81 88.72 12.22L88.72 12.22L88.72 12.22Q88.83 12.63 89.03 12.88L89.03 12.88L89.03 12.88Q89.24 13.13 89.57 13.13L89.57 13.13L89.57 13.13Q89.91 13.13 90.11 12.87L90.11 12.87L90.11 12.87Q90.32 12.61 90.43 12.19L90.43 12.19L90.43 12.19Q90.54 11.76 90.57 11.23L90.57 11.23L90.57 11.23Q90.61 10.70 90.61 10.15ZM97.81 10.01L97.81 10.01L97.81 10.01Q97.81 9.93 97.81 9.70L97.81 9.70L97.81 9.70Q97.81 9.47 97.79 9.18L97.79 9.18L97.79 9.18Q97.78 8.88 97.75 8.54L97.75 8.54L97.75 8.54Q97.71 8.21 97.64 7.92L97.64 7.92L97.64 7.92Q97.47 7.71 97.27 7.54L97.27 7.54L97.27 7.54Q97.07 7.38 96.76 7.38L96.76 7.38L96.76 7.38Q96.22 7.38 95.97 8.07L95.97 8.07L95.97 8.07Q95.72 8.77 95.72 10.23L95.72 10.23L95.72 10.23Q95.72 10.88 95.78 11.41L95.78 11.41L95.78 11.41Q95.84 11.94 95.96 12.33L95.96 12.33L95.96 12.33Q96.08 12.71 96.27 12.92L96.27 12.92L96.27 12.92Q96.46 13.13 96.71 13.13L96.71 13.13L96.71 13.13Q97.81 13.13 97.81 10.01ZM97.73 7L97.73 7L97.73 7Q97.60 6.32 97.36 5.73L97.36 5.73L97.36 5.73Q97.13 5.13 96.81 4.70L96.81 4.70L96.81 4.70Q96.48 4.27 96.07 4.03L96.07 4.03L96.07 4.03Q95.66 3.78 95.18 3.78L95.18 3.78L95.18 3.78Q94.90 3.78 94.68 3.85L94.68 3.85L94.68 3.85Q94.46 3.92 94.29 4.01L94.29 4.01L94.29 4.01Q94.13 4.10 94.02 4.19L94.02 4.19L94.02 4.19Q93.92 4.27 93.87 4.31L93.87 4.31L93.69 4.07L93.69 4.07Q93.86 3.86 94.09 3.68L94.09 3.68L94.09 3.68Q94.33 3.49 94.61 3.36L94.61 3.36L94.61 3.36Q94.89 3.23 95.20 3.16L95.20 3.16L95.20 3.16Q95.51 3.08 95.82 3.08L95.82 3.08L95.82 3.08Q96.83 3.08 97.60 3.52L97.60 3.52L97.60 3.52Q98.36 3.96 98.88 4.77L98.88 4.77L98.88 4.77Q99.39 5.58 99.65 6.72L99.65 6.72L99.65 6.72Q99.91 7.86 99.91 9.26L99.91 9.26L99.91 9.26Q99.91 10.38 99.68 11.24L99.68 11.24L99.68 11.24Q99.45 12.09 99.03 12.67L99.03 12.67L99.03 12.67Q98.60 13.25 98.00 13.54L98.00 13.54L98.00 13.54Q97.39 13.83 96.63 13.83L96.63 13.83L96.63 13.83Q96.11 13.83 95.56 13.64L95.56 13.64L95.56 13.64Q95.02 13.45 94.58 13.03L94.58 13.03L94.58 13.03Q94.14 12.61 93.86 11.92L93.86 11.92L93.86 11.92Q93.58 11.23 93.58 10.23L93.58 10.23L93.58 10.23Q93.58 9.37 93.82 8.70L93.82 8.70L93.82 8.70Q94.06 8.03 94.47 7.57L94.47 7.57L94.47 7.57Q94.88 7.11 95.42 6.87L95.42 6.87L95.42 6.87Q95.96 6.62 96.56 6.62L96.56 6.62L96.56 6.62Q96.80 6.62 96.98 6.66L96.98 6.66L96.98 6.66Q97.17 6.70 97.30 6.75L97.30 6.75L97.30 6.75Q97.44 6.81 97.54 6.87L97.54 6.87L97.54 6.87Q97.64 6.94 97.73 7ZM105.55 8.99L105.55 8.99L105.55 8.99Q105.34 8.99 105.20 8.92L105.20 8.92L105.20 8.92Q105.05 8.86 104.97 8.75L104.97 8.75L104.97 8.75Q104.88 8.64 104.84 8.51L104.84 8.51L104.84 8.51Q104.79 8.37 104.79 8.23L104.79 8.23L104.79 8.23Q104.79 8.05 104.82 7.88L104.82 7.88L104.82 7.88Q104.84 7.70 104.83 7.57L104.83 7.57L104.83 7.57Q104.81 7.43 104.72 7.35L104.72 7.35L104.72 7.35Q104.63 7.27 104.41 7.27L104.41 7.27L104.41 7.27Q104.17 7.27 103.90 7.40L103.90 7.40L103.90 7.40Q103.63 7.54 103.41 7.83L103.41 7.83L103.41 7.83Q103.20 8.13 103.05 8.59L103.05 8.59L103.05 8.59Q102.91 9.05 102.91 9.70L102.91 9.70L102.91 9.70Q102.91 10.42 103.04 11.01L103.04 11.01L103.04 11.01Q103.17 11.60 103.44 12.02L103.44 12.02L103.44 12.02Q103.71 12.43 104.10 12.66L104.10 12.66L104.10 12.66Q104.50 12.89 105.03 12.89L105.03 12.89L105.03 12.89Q105.27 12.89 105.49 12.84L105.49 12.84L105.49 12.84Q105.70 12.78 105.90 12.69L105.90 12.69L105.90 12.69Q106.09 12.59 106.26 12.47L106.26 12.47L106.26 12.47Q106.44 12.34 106.60 12.20L106.60 12.20L106.77 12.36L106.77 12.36Q106.61 12.57 106.37 12.82L106.37 12.82L106.37 12.82Q106.12 13.08 105.77 13.30L105.77 13.30L105.77 13.30Q105.42 13.52 104.96 13.67L104.96 13.67L104.96 13.67Q104.49 13.82 103.90 13.82L103.90 13.82L103.90 13.82Q103.30 13.82 102.74 13.59L102.74 13.59L102.74 13.59Q102.18 13.36 101.74 12.92L101.74 12.92L101.74 12.92Q101.30 12.48 101.04 11.86L101.04 11.86L101.04 11.86Q100.78 11.23 100.78 10.43L100.78 10.43L100.78 10.43Q100.78 9.81 100.93 9.29L100.93 9.29L100.93 9.29Q101.09 8.76 101.36 8.34L101.36 8.34L101.36 8.34Q101.63 7.92 101.99 7.59L101.99 7.59L101.99 7.59Q102.35 7.27 102.74 7.06L102.74 7.06L102.74 7.06Q103.14 6.84 103.55 6.73L103.55 6.73L103.55 6.73Q103.97 6.62 104.35 6.62L104.35 6.62L104.35 6.62Q104.86 6.62 105.23 6.74L105.23 6.74L105.23 6.74Q105.61 6.86 105.86 7.05L105.86 7.05L105.86 7.05Q106.11 7.24 106.23 7.49L106.23 7.49L106.23 7.49Q106.35 7.74 106.35 8.00L106.35 8.00L106.35 8.00Q106.35 8.20 106.30 8.38L106.30 8.38L106.30 8.38Q106.25 8.57 106.15 8.70L106.15 8.70L106.15 8.70Q106.05 8.83 105.90 8.91L105.90 8.91L105.90 8.91Q105.75 8.99 105.55 8.99ZM110.77 11.85L110.77 10.18L110.77 10.18Q110.77 10.01 110.66 9.92L110.66 9.92L110.66 9.92Q110.55 9.83 110.38 9.83L110.38 9.83L110.38 9.83Q110.14 9.83 109.93 9.94L109.93 9.94L109.93 9.94Q109.71 10.05 109.55 10.26L109.55 10.26L109.55 10.26Q109.38 10.47 109.29 10.78L109.29 10.78L109.29 10.78Q109.19 11.09 109.19 11.50L109.19 11.50L109.19 11.50Q109.19 11.90 109.25 12.16L109.25 12.16L109.25 12.16Q109.31 12.42 109.41 12.57L109.41 12.57L109.41 12.57Q109.50 12.73 109.63 12.79L109.63 12.79L109.63 12.79Q109.76 12.85 109.91 12.85L109.91 12.85L109.91 12.85Q110.09 12.85 110.24 12.76L110.24 12.76L110.24 12.76Q110.40 12.67 110.52 12.52L110.52 12.52L110.52 12.52Q110.63 12.38 110.70 12.20L110.70 12.20L110.70 12.20Q110.77 12.02 110.77 11.85L110.77 11.85ZM109.68 7.18L109.68 7.18L109.68 7.18Q109.45 7.18 109.25 7.24L109.25 7.24L109.25 7.24Q109.05 7.29 108.91 7.38L108.91 7.38L108.91 7.38Q108.77 7.46 108.68 7.56L108.68 7.56L108.68 7.56Q108.60 7.66 108.60 7.75L108.60 7.75L108.60 7.75Q108.60 7.85 108.71 7.89L108.71 7.89L108.71 7.89Q108.81 7.94 108.94 7.99L108.94 7.99L108.94 7.99Q109.07 8.05 109.18 8.16L109.18 8.16L109.18 8.16Q109.29 8.26 109.29 8.48L109.29 8.48L109.29 8.48Q109.29 8.63 109.23 8.75L109.23 8.75L109.23 8.75Q109.17 8.87 109.07 8.96L109.07 8.96L109.07 8.96Q108.97 9.05 108.84 9.10L108.84 9.10L108.84 9.10Q108.71 9.15 108.56 9.15L108.56 9.15L108.56 9.15Q108.18 9.15 107.94 8.89L107.94 8.89L107.94 8.89Q107.71 8.63 107.71 8.20L107.71 8.20L107.71 8.20Q107.71 7.79 107.93 7.49L107.93 7.49L107.93 7.49Q108.14 7.19 108.50 7L108.50 7L108.50 7Q108.85 6.81 109.29 6.72L109.29 6.72L109.29 6.72Q109.74 6.62 110.18 6.62L110.18 6.62L110.18 6.62Q110.71 6.62 111.20 6.74L111.20 6.74L111.20 6.74Q111.69 6.86 112.06 7.11L112.06 7.11L112.06 7.11Q112.43 7.36 112.65 7.75L112.65 7.75L112.65 7.75Q112.88 8.14 112.88 8.70L112.88 8.70L112.88 12.56L112.88 12.56Q112.88 12.62 112.88 12.69L112.88 12.69L112.88 12.69Q112.89 12.77 112.92 12.83L112.92 12.83L112.92 12.83Q112.94 12.89 113.00 12.93L113.00 12.93L113.00 12.93Q113.05 12.97 113.16 12.97L113.16 12.97L113.16 12.97Q113.28 12.97 113.38 12.88L113.38 12.88L113.38 12.88Q113.49 12.79 113.57 12.69L113.57 12.69L113.74 12.84L113.74 12.84Q113.64 12.98 113.50 13.15L113.50 13.15L113.50 13.15Q113.35 13.32 113.15 13.47L113.15 13.47L113.15 13.47Q112.94 13.62 112.67 13.73L112.67 13.73L112.67 13.73Q112.40 13.83 112.05 13.83L112.05 13.83L112.05 13.83Q111.62 13.83 111.28 13.57L111.28 13.57L111.28 13.57Q110.95 13.32 110.84 12.78L110.84 12.78L110.84 12.78Q110.63 13.08 110.39 13.28L110.39 13.28L110.39 13.28Q110.15 13.47 109.91 13.60L109.91 13.60L109.91 13.60Q109.66 13.72 109.41 13.77L109.41 13.77L109.41 13.77Q109.16 13.83 108.91 13.83L108.91 13.83L108.91 13.83Q108.58 13.83 108.27 13.73L108.27 13.73L108.27 13.73Q107.97 13.62 107.72 13.40L107.72 13.40L107.72 13.40Q107.48 13.18 107.33 12.82L107.33 12.82L107.33 12.82Q107.19 12.47 107.19 11.96L107.19 11.96L107.19 11.96Q107.19 11.33 107.43 10.94L107.43 10.94L107.43 10.94Q107.68 10.54 108.08 10.27L108.08 10.27L108.08 10.27Q108.48 10.00 108.99 9.81L108.99 9.81L108.99 9.81Q109.50 9.62 110.03 9.41L110.03 9.41L110.03 9.41Q110.43 9.25 110.61 8.94L110.61 8.94L110.61 8.94Q110.79 8.63 110.79 8.30L110.79 8.30L110.79 8.30Q110.79 7.79 110.49 7.49L110.49 7.49L110.49 7.49Q110.20 7.18 109.68 7.18ZM116.86 7.17L116.86 7.17L116.86 7.17Q116.70 7.17 116.56 7.21L116.56 7.21L116.56 7.21Q116.42 7.25 116.31 7.35L116.31 7.35L116.31 7.35Q116.20 7.44 116.14 7.58L116.14 7.58L116.14 7.58Q116.08 7.72 116.08 7.91L116.08 7.91L116.08 7.91Q116.08 8.18 116.28 8.44L116.28 8.44L116.28 8.44Q116.47 8.70 116.76 8.99L116.76 8.99L116.76 8.99Q117.05 9.27 117.39 9.57L117.39 9.57L117.39 9.57Q117.73 9.88 118.02 10.22L118.02 10.22L118.02 10.22Q118.31 10.55 118.50 10.94L118.50 10.94L118.50 10.94Q118.70 11.32 118.70 11.76L118.70 11.76L118.70 11.76Q118.70 12.25 118.53 12.63L118.53 12.63L118.53 12.63Q118.36 13.02 118.05 13.28L118.05 13.28L118.05 13.28Q117.74 13.55 117.30 13.69L117.30 13.69L117.30 13.69Q116.86 13.83 116.32 13.83L116.32 13.83L116.32 13.83Q115.85 13.83 115.47 13.70L115.47 13.70L115.47 13.70Q115.08 13.56 114.79 13.37L114.79 13.37L114.79 13.37Q114.49 13.17 114.28 12.95L114.28 12.95L114.28 12.95Q114.06 12.74 113.95 12.56L113.95 12.56L114.19 12.39L114.19 12.39Q114.28 12.49 114.41 12.61L114.41 12.61L114.41 12.61Q114.55 12.73 114.72 12.83L114.72 12.83L114.72 12.83Q114.88 12.93 115.08 13.00L115.08 13.00L115.08 13.00Q115.27 13.06 115.47 13.06L115.47 13.06L115.47 13.06Q115.96 13.06 116.27 12.83L116.27 12.83L116.27 12.83Q116.59 12.59 116.59 12.13L116.59 12.13L116.59 12.13Q116.59 11.87 116.42 11.59L116.42 11.59L116.42 11.59Q116.25 11.31 115.99 11.02L115.99 11.02L115.99 11.02Q115.73 10.73 115.42 10.41L115.42 10.41L115.42 10.41Q115.12 10.10 114.86 9.76L114.86 9.76L114.86 9.76Q114.60 9.43 114.43 9.07L114.43 9.07L114.43 9.07Q114.26 8.72 114.26 8.33L114.26 8.33L114.26 8.33Q114.26 7.90 114.44 7.58L114.44 7.58L114.44 7.58Q114.61 7.26 114.90 7.05L114.90 7.05L114.90 7.05Q115.19 6.84 115.56 6.73L115.56 6.73L115.56 6.73Q115.94 6.62 116.33 6.62L116.33 6.62L116.33 6.62Q116.79 6.62 117.17 6.71L117.17 6.71L117.17 6.71Q117.54 6.79 117.81 6.96L117.81 6.96L117.81 6.96Q118.08 7.12 118.23 7.38L118.23 7.38L118.23 7.38Q118.38 7.63 118.38 7.96L118.38 7.96L118.38 7.96Q118.38 8.22 118.21 8.42L118.21 8.42L118.21 8.42Q118.04 8.61 117.73 8.61L117.73 8.61L117.73 8.61Q117.43 8.61 117.28 8.48L117.28 8.48L117.28 8.48Q117.13 8.35 117.13 8.13L117.13 8.13L117.13 8.13Q117.13 7.99 117.20 7.91L117.20 7.91L117.20 7.91Q117.27 7.83 117.36 7.78L117.36 7.78L117.36 7.78Q117.45 7.72 117.52 7.69L117.52 7.69L117.52 7.69Q117.59 7.65 117.59 7.59L117.59 7.59L117.59 7.59Q117.59 7.40 117.39 7.28L117.39 7.28L117.39 7.28Q117.18 7.17 116.86 7.17ZM123.11 7.21L122.05 7.21L122.05 12.26L122.05 12.26Q122.05 12.63 122.19 12.77L122.19 12.77L122.19 12.77Q122.32 12.91 122.56 12.91L122.56 12.91L122.56 12.91Q122.75 12.91 122.89 12.80L122.89 12.80L122.89 12.80Q123.03 12.70 123.14 12.57L123.14 12.57L123.14 12.57Q123.26 12.43 123.35 12.24L123.35 12.24L123.56 12.33L123.56 12.33Q123.46 12.55 123.32 12.81L123.32 12.81L123.32 12.81Q123.18 13.07 122.94 13.29L122.94 13.29L122.94 13.29Q122.71 13.51 122.36 13.67L122.36 13.67L122.36 13.67Q122.01 13.82 121.47 13.82L121.47 13.82L121.47 13.82Q121.17 13.82 120.90 13.73L120.90 13.73L120.90 13.73Q120.62 13.64 120.40 13.45L120.40 13.45L120.40 13.45Q120.19 13.25 120.06 12.97L120.06 12.97L120.06 12.97Q119.93 12.68 119.93 12.28L119.93 12.28L119.93 7.21L119.16 7.21L119.16 6.72L119.16 6.72Q119.36 6.72 119.70 6.62L119.70 6.62L119.70 6.62Q120.04 6.52 120.40 6.29L120.40 6.29L120.40 6.29Q120.76 6.06 121.06 5.67L121.06 5.67L121.06 5.67Q121.37 5.28 121.50 4.70L121.50 4.70L122.05 4.70L122.05 6.72L123.16 6.72L123.16 6.72Q123.71 6.72 123.71 6.54L123.71 6.54L123.71 6.54Q123.71 6.47 123.64 6.44L123.64 6.44L123.64 6.44Q123.57 6.42 123.49 6.38L123.49 6.38L123.49 6.38Q123.40 6.34 123.33 6.28L123.33 6.28L123.33 6.28Q123.27 6.21 123.27 6.05L123.27 6.05L123.27 6.05Q123.27 5.86 123.39 5.75L123.39 5.75L123.39 5.75Q123.50 5.64 123.70 5.64L123.70 5.64L123.70 5.64Q123.82 5.64 123.91 5.69L123.91 5.69L123.91 5.69Q124.00 5.74 124.07 5.83L124.07 5.83L124.07 5.83Q124.13 5.91 124.16 6.02L124.16 6.02L124.16 6.02Q124.19 6.13 124.19 6.24L124.19 6.24L124.19 6.24Q124.19 6.69 123.93 6.95L123.93 6.95L123.93 6.95Q123.68 7.21 123.11 7.21L123.11 7.21Z"></path></g><!----><g data-v-423bf9ae="" id="85e4fd43-4763-458c-857c-704cfc68679d" transform="matrix(6.428571428571429,0,0,6.428571428571429,95.85714285714286,0)" stroke="none" fill="black"><path d="M0 0v14h52V0H0zm6 10.46V3.53l6 3.46zM48 8h-5.36a2.82 2.82 0 0 1-5.27 0H22V6h15.36a2.82 2.82 0 0 1 5.27 0H48v2z"></path></g><!----></svg>