<svg xmlns="http://www.w3.org/2000/svg" viewBox="0 0 174.81 221.29"><defs><style>.cls-1{fill:#801625;}.cls-2{fill:#98839f;}</style></defs><g id="Layer_2" data-name="Layer 2"><g id="GAP_Vertical_Placement" data-name="GAP Vertical Placement"><g id="GAP_Icon" data-name="GAP Icon"><g id="Photozincography"><path id="Sound_Layer_3" data-name="Sound Layer 3" class="cls-1" d="M100.36,221.29a78.59,78.59,0,0,1-9.92-.67c-2.29-.3-4.63-.7-7-1.18-9-1.86-17.14-4.92-23-8.59-6.57-4.1-9.68-8.67-8.78-12.89a7.92,7.92,0,0,1,3.09-4.59l.85-.67,3,3.7-.86.66a3.37,3.37,0,0,0-1.36,1.88C55.9,201,58.45,204,63,206.88c5.43,3.38,13,6.21,21.48,8a79.79,79.79,0,0,0,15.89,1.74,47.63,47.63,0,0,0,7-.47c5.33-.78,8.92-2.54,9.36-4.6a3.36,3.36,0,0,0-.47-2.26l-.51-.95,4.21-2.2.51.94a7.84,7.84,0,0,1,.93,5.44c-.91,4.21-5.64,7.15-13.32,8.28A54.75,54.75,0,0,1,100.36,221.29Z"/><path id="Sound_Layer_2" data-name="Sound Layer 2" class="cls-1" d="M125.51,152.49A154.39,154.39,0,0,1,106,151.17c-4.51-.59-9.13-1.37-13.73-2.33C74.6,145.17,58.52,139.17,47,132c-12.23-7.63-18.09-15.9-16.5-23.3a13.52,13.52,0,0,1,5.31-7.83l.85-.67,3,3.7-.85.66a9,9,0,0,0-3.59,5.11c-1.12,5.19,4.26,12,14.38,18.36,11.09,6.91,26.62,12.68,43.73,16.25a161.34,161.34,0,0,0,32.25,3.55,100.51,100.51,0,0,0,14.41-1c11.85-1.74,19.58-5.87,20.7-11.05a8.89,8.89,0,0,0-1.18-6.11l-.51-.94,4.21-2.21.51,1a13.34,13.34,0,0,1,1.63,9.28c-1.58,7.4-10.34,12.62-24.66,14.72A104.1,104.1,0,0,1,125.51,152.49Z"/><path id="Sound_Layer_1" data-name="Sound Layer 1" class="cls-1" d="M110.52,186a101.56,101.56,0,0,1-13-.88c-3-.4-6.15-.92-9.25-1.57-11.85-2.47-22.67-6.5-30.45-11.35-8.45-5.27-12.48-11.08-11.35-16.36a9.79,9.79,0,0,1,3.82-5.68l.86-.66,2.94,3.7-.85.66a5.26,5.26,0,0,0-2.11,3c-.67,3.12,2.79,7.39,9.24,11.41,7.31,4.56,17.57,8.37,28.89,10.73a105.91,105.91,0,0,0,21.33,2.35c14.46,0,21.87-3.83,22.64-7.39a5.18,5.18,0,0,0-.71-3.55l-.51-1,4.21-2.2.51.95a9.61,9.61,0,0,1,1.16,6.72C136.35,181.84,126.13,186,110.52,186Z"/></g><path id="Africa" class="cls-2" d="M139,120.32l.28-.65a19.68,19.68,0,0,1,4.26-6.36,149.6,149.6,0,0,1,13.29-11.11C163.49,97,171,91.2,171,88c0-.25,0-.86-1-1.65a4.47,4.47,0,0,0-2.71-.91l-.47,0a17.25,17.25,0,0,1-1.89.11c-4.36,0-8.63-1.68-12.69-5C139.34,70,131.73,45.72,130.44,31.82a4.72,4.72,0,0,0-4.21-4.23c-9.32-1-47.31-7.57-49.31-19a5.08,5.08,0,0,0-4.11-3.82,51.8,51.8,0,0,0-10.25-1c-20.18,0-41.64,10.85-52.18,26.4-8.7,12.84-8.71,27.25,0,40.57,4.88,9.81,21.29,11.93,34.48,13.63,6.42.82,12.45,1.6,16.54,3.12l1.64.62-.48,1.68a37.75,37.75,0,0,0-1.14,5.52l-.09.7-3.75-.49.09-.71a42.92,42.92,0,0,1,.79-4.3,104.47,104.47,0,0,0-13.93-2.37l-.13,0C30.26,86.3,12.76,84,7.1,72.63c-9.51-14.53-9.47-30.39.15-44.58,11.19-16.51,34-28,55.37-28A55.76,55.76,0,0,1,73.56,1.06a8.83,8.83,0,0,1,7.09,6.87c1.06,6.06,26.16,13.8,46,15.9l.19,0a8.56,8.56,0,0,1,7.4,7.63c1.42,15.33,9.63,37.33,20.41,46.12,3.36,2.74,6.83,4.13,10.31,4.13a14.48,14.48,0,0,0,1.47-.08,8.49,8.49,0,0,1,.88-.05,8.27,8.27,0,0,1,5,1.69A5.75,5.75,0,0,1,174.81,88c0,5.1-7.25,10.72-15.66,17.23a150.08,150.08,0,0,0-13,10.83,15.91,15.91,0,0,0-3.43,5.14l-.27.65Z"/></g></g></g></svg>